<svg width="64" height="64" viewBox="0 0 64 64" fill="none" xmlns="http://www.w3.org/2000/svg">
<rect width="64" height="64" rx="32" fill="#CACCCC"/>
<g clip-path="url(#clip0_14748_117608)">
<path d="M32.238 13.4014L32.0046 13.4C24.753 13.4007 16.9849 16.4277 11.3156 23.7371L10.9109 24.271L10.8701 24.3316C10.3879 25.0864 10.0823 25.8413 9.98432 26.5508C9.86696 27.4004 10.0466 28.1952 10.5782 28.7885C11.1339 29.4086 11.9455 29.6646 12.8485 29.5861C13.5154 29.5281 14.2461 29.2893 15.0313 28.8817L15.6665 28.5351L15.8918 28.421V29.4275L15.9195 29.3166C15.8894 29.4263 15.8632 29.5467 15.8428 29.678C15.7874 30.0341 15.7814 30.4209 15.8427 30.8303L15.8979 31.1243C16.0523 31.8074 16.3874 32.4698 16.9187 33.0809L17.1507 33.3329L17.1768 34.7038C17.1936 35.5334 17.3895 36.3499 17.7516 37.1009L17.8829 37.3428C18.0727 37.6555 18.32 37.9275 18.6102 38.147L18.6893 38.201L18.7473 38.6831C19.0471 40.7268 20.0322 42.6533 21.5847 44.2289L21.9115 44.5473L25.8793 48.2558C27.1787 49.4697 29.0008 50.15 30.8994 50.15H33.1014C34.8587 50.15 36.5552 49.5667 37.8307 48.5114L38.1047 48.271L42.0776 44.5577L42.418 44.226C43.9669 42.6526 44.9525 40.7278 45.2527 38.6835L45.3083 38.201L45.3898 38.147C45.7526 37.8726 46.0484 37.5161 46.2486 37.1007C46.5498 36.476 46.7364 35.8049 46.8 35.118L46.8223 34.731L46.8496 33.3677L46.8473 33.329L47.081 33.0794C47.6876 32.3813 48.038 31.6162 48.1558 30.8298C48.217 30.4204 48.211 30.0334 48.1556 29.6777L48.1203 29.4865L48.1028 29.4185V28.418L48.3333 28.535L48.629 28.6967C49.5438 29.2173 50.3895 29.5198 51.1516 29.5861C52.0546 29.6646 52.8662 29.4086 53.4219 28.7885C53.9535 28.1953 54.1331 27.4007 54.0159 26.551C53.9319 25.9427 53.6953 25.3012 53.3258 24.655L53.1193 24.3147L53.0773 24.2548C47.4566 16.6775 39.6387 13.4889 32.238 13.4014Z" fill="white"/>
<path d="M41.1558 43.5715L37.199 47.2694C36.1567 48.2431 34.6665 48.8 33.1013 48.8H30.8993C29.3342 48.8 27.8433 48.2431 26.801 47.2694L22.8442 43.5715C21.0119 41.8597 20 39.6457 20 37.3517V37.3466C19.5505 37.2316 19.1683 36.9311 18.9676 36.5146C18.6895 35.9378 18.5393 35.3119 18.5265 34.6769L18.5002 33.3412C18.4874 32.6859 19.0385 32.1481 19.7231 32.1481H20.0504C20.496 28.8572 23.8453 26.3 27.9114 26.3H36.0886C40.1547 26.3 43.504 28.8572 43.9496 32.1481H44.2769C44.9615 32.1481 45.5126 32.6859 45.4998 33.3412L45.4735 34.6769C45.4607 35.3119 45.3105 35.9378 45.0324 36.5146C44.8317 36.9311 44.4495 37.2316 44 37.3466V37.3517C44 39.6457 42.9874 41.8597 41.1558 43.5715Z" fill="#FFC3AB"/>
<path fill-rule="evenodd" clip-rule="evenodd" d="M26.801 47.2694L22.8442 43.5714C21.0126 41.8597 20 39.6457 20 37.3517V33.3227C20.0796 32.8204 20.2205 32.4966 20.4581 32.4941L21.2102 32.3C21.1739 32.3182 21.2803 33.317 21.377 34.2248C21.4481 34.8926 21.514 35.5112 21.514 35.654C21.4999 36.0219 21.4578 36.4865 21.3875 36.7092C21.3313 36.9222 21.3312 37.4449 21.4015 37.8708C21.6686 39.652 22.4558 41.0266 24.0583 42.5271C24.8737 43.3015 25.1689 43.4758 25.1689 43.2047C25.1689 42.9046 26.0826 42.1496 26.8838 41.7817C28.0927 41.2299 29.386 40.9782 30.6793 41.046C31.2415 41.075 31.8038 41.1041 31.9163 41.1041C31.9338 41.1041 31.9623 41.1034 32 41.1021C32.0377 41.1034 32.0662 41.1041 32.0837 41.1041C32.1962 41.1041 32.7585 41.075 33.3207 41.046C34.614 40.9782 35.9073 41.2299 37.1162 41.7817C37.9174 42.1496 38.8311 42.9046 38.8311 43.2047C38.8311 43.4758 39.1263 43.3015 39.9417 42.5271C41.5442 41.0266 42.3314 39.652 42.5985 37.8708C42.6688 37.4449 42.6687 36.9222 42.6125 36.7092C42.5422 36.4865 42.5001 36.0219 42.486 35.654C42.486 35.5112 42.5519 34.8926 42.623 34.2249C42.7197 33.3171 42.8261 32.3182 42.7898 32.3L43.5419 32.4941C43.7795 32.4966 43.9204 32.8204 44 33.3227V37.3517C44 39.6457 42.9874 41.8597 41.1558 43.5714L37.199 47.2694C36.3113 48.0987 35.0988 48.6257 33.7915 48.7637C33.3307 48.7813 32.7766 48.7907 32.0767 48.8L32 48.799L31.9233 48.8C31.2234 48.7907 30.6693 48.7813 30.2085 48.7637C28.9012 48.6257 27.6887 48.0987 26.801 47.2694ZM32 46.3798L32.0693 46.3725L34.1509 46.5935C34.686 46.6504 35.205 46.3584 35.5065 45.831C35.9855 44.9933 35.7691 43.8498 35.0342 43.3354L34.8715 43.2215C34.4199 42.9054 33.8689 42.8617 33.3858 43.1036C32.9503 43.3217 32.4741 43.4252 32 43.414C31.5259 43.4252 31.0497 43.3217 30.6142 43.1036C30.1311 42.8617 29.5801 42.9054 29.1285 43.2215L28.9658 43.3354C28.2309 43.8498 28.0145 44.9933 28.4935 45.831C28.795 46.3584 29.314 46.6504 29.8491 46.5935L31.9307 46.3725L32 46.3798Z" fill="#CC947E"/>
<path d="M31.1358 37.7882H32.8642C33.2652 37.7882 33.661 37.8754 34.021 38.0425C34.543 38.2851 35.1335 38.3589 35.7036 38.2528L37.6469 37.8907C39.8604 37.4779 41.716 36.0476 42.5986 34.0717L44 30.9359L41.3336 27.8H22.6664L20 30.9359L21.4014 34.0717C22.284 36.0476 24.1396 37.4779 26.3531 37.8907L28.2964 38.2528C28.8665 38.3589 29.457 38.2851 29.979 38.0425C30.339 37.8754 30.7348 37.7882 31.1358 37.7882Z" fill="#D19988" fill-opacity="0.4"/>
<path d="M17.2454 23.75H46.7547V29.6C46.7547 29.6 48.9736 35.45 32.0001 35.45C15.0265 35.45 17.2454 29.6 17.2454 29.6V23.75Z" fill="#AB1300"/>
<mask id="mask0_14748_117608" style="mask-type:alpha" maskUnits="userSpaceOnUse" x="17" y="23" width="30" height="13">
<path d="M17.2444 23.7499H46.7538V29.5999C46.7538 29.5999 48.9727 35.4499 31.9991 35.4499C15.0256 35.4499 17.2444 29.5999 17.2444 29.5999V23.7499Z" fill="#AB1300"/>
</mask>
<g mask="url(#mask0_14748_117608)">
<ellipse cx="32.8997" cy="32.2997" rx="24.75" ry="4.95" fill="black"/>
<mask id="mask1_14748_117608" style="mask-type:alpha" maskUnits="userSpaceOnUse" x="16" y="28" width="32" height="8">
<path d="M16.2479 29.6004C16.2479 29.6004 25.8446 28.5504 31.9979 28.5504C38.1512 28.5504 47.7479 29.6004 47.7479 29.6004V35.9004H16.2479V29.6004Z" fill="#474747"/>
</mask>
<g mask="url(#mask1_14748_117608)">
<path d="M16.2479 29.6004C16.2479 29.6004 25.8446 28.5504 31.9979 28.5504C38.1512 28.5504 47.7479 29.6004 47.7479 29.6004V35.9004H16.2479V29.6004Z" fill="#474747"/>
<path d="M33.83 28.2242L28.9468 37.3549C31.8593 37.8691 31.8572 37.312 34.8006 37.1764L39.5884 28.2242H33.83Z" fill="#5E5E5E"/>
<path d="M29.8456 28.2242L25.1182 36.8905L27.2104 37.6436L32.2479 28.2242H29.8456Z" fill="#B7B7B7"/>
</g>
</g>
<path d="M12.0077 25.0583C18.6568 16.0946 27.9229 14.7504 32 14.75C36.0772 14.7504 45.3432 16.0946 51.9923 25.0583C53.5669 27.5234 52.4473 29.3162 49.2968 27.5234C46.1462 25.7306 40.9836 24.8343 31.9963 24.8343C23.009 24.8343 17.8538 25.7306 14.7033 27.5234C11.5528 29.3162 10.4331 27.5234 12.0077 25.0583Z" fill="#E1E3E3"/>
<path d="M35.5988 25.6604V30.5H28.3988V25.6604C28.3988 25.1463 28.6187 24.6567 29.0029 24.3151L31.4009 22.1836C31.7419 21.8805 32.2557 21.8805 32.5967 22.1836L34.9946 24.3151C35.3789 24.6567 35.5988 25.1463 35.5988 25.6604Z" fill="#BECDA6" stroke="#0F6041" stroke-width="0.9"/>
<circle cx="31.9994" cy="26.9" r="1.8" fill="#FFE91A"/>
</g>
<defs>
<clipPath id="clip0_14748_117608">
<rect width="48" height="48" fill="white" transform="translate(8 8)"/>
</clipPath>
</defs>
</svg>
